# xmcd
#
# Track frame offsets:
#	150
#	13580
#	26410
#	42410
#	61639
#	81700
#	99937
#	116792
#	127402
#	141857
#	160485
#	173017
#
# Disc length: 2450 seconds
#
# Revision: 0
# Processed by: cddbd v1.4PL0 Copyright (c) Steve Scherf et al.
# Submitted via: EasyCDDAExtractor 5.0.4.1
#
DISCID=a309900c
DTITLE=Hamac - The very best of them...
DYEAR=2002
DGENRE=Country
TTITLE0=Proud Mary
TTITLE1=Lookin'out my back door
TTITLE2=I want my fleetwood back
TTITLE3=Please baby
TTITLE4=Tou're gonna look good in blues
TTITLE5=Johnny B.Goode
TTITLE6=Lodi
TTITLE7=Run me Down
TTITLE8=Take me home country roads
TTITLE9=Tunica Motel
TTITLE10=I wonder where you are tonight
TTITLE11=Memphis Tenessee
EXTD=
EXTT0=
EXTT1=
EXTT2=
EXTT3=
EXTT4=
EXTT5=
EXTT6=
EXTT7=
EXTT8=
EXTT9=
EXTT10=
EXTT11=
PLAYORDER=
